<?xml version="1.0" encoding="UTF-8" standalone="no"?>
<!-- Created with Inkscape (http://www.inkscape.org/) -->

<svg
   version="1.1"
   id="svg2"
   xml:space="preserve"
   width="355.8161"
   height="122.35903"
   viewBox="0 0 355.8161 122.35903"
   sodipodi:docname="carbond.svg"
   inkscape:version="1.1.2 (0a00cf5339, 2022-02-04)"
   inkscape:export-filename="/home/andreas/Repos/proposals/galapagos.png"
   inkscape:export-xdpi="96"
   inkscape:export-ydpi="96"
   xmlns:inkscape="http://www.inkscape.org/namespaces/inkscape"
   xmlns:sodipodi="http://sodipodi.sourceforge.net/DTD/sodipodi-0.dtd"
   xmlns="http://www.w3.org/2000/svg"
   xmlns:svg="http://www.w3.org/2000/svg"><defs
     id="defs6"><rect
       x="180.30859"
       y="-5.1165962"
       width="231.06956"
       height="71.275658"
       id="rect2290" /><style
       id="style29">.fa-secondary{opacity:.4}</style></defs><sodipodi:namedview
     id="namedview4"
     pagecolor="#ffffff"
     bordercolor="#666666"
     borderopacity="1.0"
     inkscape:pageshadow="2"
     inkscape:pageopacity="0.0"
     inkscape:pagecheckerboard="0"
     showgrid="false"
     inkscape:zoom="1.6155851"
     inkscape:cx="179.81102"
     inkscape:cy="-71.491127"
     inkscape:window-width="3766"
     inkscape:window-height="2096"
     inkscape:window-x="74"
     inkscape:window-y="27"
     inkscape:window-maximized="1"
     inkscape:current-layer="g10"
     fit-margin-top="0"
     fit-margin-left="0"
     fit-margin-right="0"
     fit-margin-bottom="0" /><g
     id="g8"
     inkscape:groupmode="layer"
     inkscape:label="ink_ext_XXXXXX"
     transform="matrix(1.3333333,0,0,-1.3333333,-3.5282239,182.35976)"><g
       id="g10"
       transform="matrix(0.13259157,0,0,0.13259157,-53.517367,-27.195566)"><path
         d="m 638.797,544.5 h -125.27 c -33.332,0 -60.457,27.121 -60.457,60.461 v 231.977 l -27.375,45.949 c -2.816,4.726 -2.816,10.625 0,15.351 l 27.375,45.946 v 231.976 c 0,33.34 27.125,60.46 60.457,60.46 h 125.27 v -30 h -125.27 c -16.797,0 -30.457,-13.66 -30.457,-30.46 V 940.055 c 0,-2.707 -0.73,-5.36 -2.113,-7.68 l -24.914,-41.812 24.914,-41.821 c 1.383,-2.316 2.113,-4.969 2.113,-7.672 V 604.961 c 0,-16.801 13.66,-30.461 30.457,-30.461 h 125.27 v -30"
         style="fill:#99d64c;fill-opacity:1;fill-rule:nonzero;stroke:none"
         id="path12" /><path
         d="m 1138.08,544.5 h -125.26 v 30 h 125.26 c 16.8,0 30.46,13.66 30.46,30.461 V 841.07 c 0,2.703 0.73,5.356 2.11,7.68 l 24.92,41.813 -24.92,41.808 c -1.38,2.324 -2.11,4.977 -2.11,7.684 v 236.105 c 0,16.8 -13.66,30.46 -30.46,30.46 h -125.26 v 30 h 125.26 c 33.34,0 60.46,-27.12 60.46,-60.46 V 944.184 l 27.38,-45.942 c 2.81,-4.73 2.81,-10.629 0,-15.363 l -27.38,-45.941 V 604.961 c 0,-33.34 -27.12,-60.461 -60.46,-60.461"
         style="fill:#99d64c;fill-opacity:1;fill-rule:nonzero;stroke:none"
         id="path14" /><g
         aria-label="carbond"
         transform="matrix(8.4431657,0,0,-8.4431657,-272.87485,1029.0162)"
         id="text2288"
         style="font-weight:bold;font-size:40px;line-height:1.25;font-family:'Sofia Sans';-inkscape-font-specification:'Sofia Sans Bold';letter-spacing:0px;word-spacing:0px;white-space:pre;shape-inside:url(#rect2290);fill:#256c67"><path
           d="m 191.10859,30.362812 q -4.24,0 -6.52,-2.08 -2.24,-2.08 -2.24,-5.96 v -4.519999 q 0,-3.92 2.28,-6.000001 2.28,-2.0799995 6.52,-2.0799995 2.68,0 4.52,0.8799995 1.84,0.84 2.8,2.32 0.96,1.440001 0.88,3.32 -0.04,0.84 -0.48,0.84 h -3.6 q -0.44,0 -0.44,-0.64 0,-1.279999 -1,-1.959999 -0.96,-0.720001 -2.64,-0.720001 -2.08,0 -3.12,1.080001 -1,1.039999 -1,3.399999 v 3.6 q 0,2.32 1,3.4 1.04,1.04 3.08,1.04 1.76,0 2.68,-0.72 0.96,-0.759999 0.96,-1.92 0,-0.6 0.44,-0.6 h 3.6 q 0.44,0 0.48,0.440001 0.08,3.119999 -2,5 -2.08,1.879999 -6.2,1.879999 z"
           id="path16" /><path
           d="m 214.99965,29.882812 q -0.24,0 -0.36,-0.12 -0.08,-0.16 -0.16,-0.4 -0.08,-0.4 -0.2,-1.36 -0.12,-0.96 -0.2,-1.84 l -0.28,-1.64 v -8 q 0,-1.679999 -0.68,-2.36 -0.64,-0.72 -2.32,-0.72 -3.08,0 -3,2.200001 0,0.479999 -0.44,0.479999 h -3.6 q -0.48,0 -0.52,-0.679999 -0.24,-2.72 1.8,-4.200001 2.08,-1.5199995 5.92,-1.5199995 3.92,0 5.72,1.6800005 1.84,1.64 1.84,5.199999 v 8.28 q 0,1.32 0.04,2.440001 0.08,1.119999 0.2,2.039999 0.08,0.52 -0.44,0.52 z m -7.64,0.48 q -2.4,0 -3.68,-1.44 -1.28,-1.439999 -1.28,-4.119999 0,-2.080001 0.8,-3.36 0.8,-1.32 2.6,-2.040001 1.84,-0.76 4.88,-1 l 3.72,-0.36 v 2.88 l -3.32,0.32 q -2.32,0.200001 -3.2,0.880001 -0.88,0.68 -0.88,2.199999 0,1.2 0.48,1.76 0.48,0.56 1.48,0.56 1.2,0 2.44,-0.76 1.24,-0.8 3.12,-2.8 l 0.2,3.2 q -1.28,1.32 -2.44,2.24 -1.12,0.88 -2.32,1.36 -1.2,0.48 -2.6,0.48 z"
           id="path18" /><path
           d="m 224.07962,29.882812 q -0.44,0 -0.44,-0.48 V 15.122813 q 0,-1.200001 -0.08,-2.28 -0.04,-1.080001 -0.2,-2.16 -0.08,-0.48 0.48,-0.48 h 3.36 q 0.44,0 0.52,0.399999 0.16,0.72 0.24,1.64 0.08,0.920001 0.08,1.640001 l 0.32,2.319999 v 13.2 q 0,0.48 -0.48,0.48 z m 3.84,-11.92 -0.24,-4.079999 q 0.84,-1.2 1.88,-2.120001 1.08,-0.96 2.16,-1.48 1.12,-0.5599995 2.04,-0.5599995 0.68,0 1.04,0.12 0.4,0.12 0.4,0.5200005 0.04,0.959999 0,2.079999 0,1.080001 -0.12,2.040001 -0.08,0.52 -0.56,0.4 -0.28,-0.04 -0.64,-0.08 -0.36,-0.04 -0.72,-0.04 -0.88,0 -1.84,0.400001 -0.92,0.36 -1.8,1.079999 -0.84,0.72 -1.6,1.72 z"
           id="path20" /><path
           d="m 246.67961,30.362812 q -1.52,0 -2.84,-0.2 -1.28,-0.16 -2.64,-0.359999 -1.32,-0.200001 -2.96,-0.32 V 3.0428125 q 0,-0.48 0.44,-0.48 h 3.8 q 0.48,0 0.48,0.48 V 26.082812 q 0.76,0.12 1.6,0.240001 0.88,0.08 1.64,0.08 2.16,0 3.2,-1.12 1.04,-1.16 1.04,-3.479999 v -4.200001 q 0,-1.999999 -0.68,-2.879999 -0.68,-0.920001 -2.12,-0.920001 -1.16,0 -2.4,0.680001 -1.2,0.68 -3.04,2.239999 l 0.16,-3.8 q 1.76,-1.68 3.44,-2.439999 1.68,-0.7600005 3.48,-0.7600005 2.92,0 4.4,1.7599995 1.48,1.720001 1.48,5.36 v 5.4 q 0,4.080001 -2.08,6.12 -2.08,2 -6.4,2 z"
           id="path22" /><path
           d="m 268.15957,30.362812 q -4.24,0 -6.56,-2.039999 -2.28,-2.040001 -2.28,-6.120001 v -4.32 q 0,-4.08 2.28,-6.12 2.28,-2.0399995 6.56,-2.0399995 4.24,0 6.52,2.0399995 2.28,2.04 2.28,6.12 v 4.32 q 0,4.08 -2.28,6.120001 -2.24,2.039999 -6.52,2.039999 z m 0,-4.039999 q 2.16,0 3.12,-1.080001 0.96,-1.12 0.96,-3.48 v -3.439999 q 0,-2.360001 -0.96,-3.44 -0.96,-1.120001 -3.12,-1.120001 -2.16,0 -3.16,1.120001 -0.96,1.079999 -0.96,3.44 v 3.439999 q 0,2.36 0.96,3.48 1,1.080001 3.16,1.080001 z"
           id="path24" /><path
           d="m 294.52437,29.882812 q -0.48,0 -0.48,-0.48 v -12.32 q 0,-1.679999 -0.68,-2.48 -0.68,-0.8 -2.08,-0.8 -1.4,0 -2.76,0.840001 -1.32,0.8 -3.04,2.519999 l -0.16,-3.439999 q 1.16,-1.280001 2.32,-2.16 1.2,-0.88 2.48,-1.36 1.28,-0.4800005 2.8,-0.4800005 2.88,0 4.36,1.6400005 1.48,1.6 1.48,4.959999 v 13.08 q 0,0.48 -0.48,0.48 z m -12.56,0 q -0.44,0 -0.44,-0.48 V 15.202813 q 0,-1.16 -0.12,-2.36 -0.08,-1.240001 -0.16,-2.080001 -0.08,-0.559999 0.48,-0.559999 h 3.36 q 0.4,0 0.52,0.399999 0.08,0.36 0.16,1 0.08,0.600001 0.16,1.280001 0.08,0.68 0.08,1.199999 l 0.24,1.600001 v 13.719999 q 0,0.48 -0.48,0.48 z"
           id="path26" /><path
           d="m 309.2043,30.362812 q -2.8,0 -4.28,-1.76 -1.48,-1.76 -1.48,-5.36 v -5.439999 q 0,-4.040001 1.88,-6.040001 1.92,-2.0399995 5.24,-2.0399995 1.44,0 3.12,0.4000005 1.68,0.36 2.68,0.999999 l 0.16,3.760001 q -1.12,-0.600001 -2.4,-0.880001 -1.28,-0.32 -2.28,-0.32 -1.88,0 -2.8,1.160001 -0.88,1.159999 -0.88,3.399999 v 4.520001 q 0,1.759999 0.68,2.639999 0.68,0.88 2.08,0.88 0.92,0 1.76,-0.36 0.88,-0.36 1.84,-1.08 1,-0.76 2.16,-1.96 l 0.16,3.48 q -1.2,1.2 -2.36,2.120001 -1.16,0.879999 -2.44,1.399999 -1.28,0.48 -2.84,0.48 z m 7.88,-0.48 q -0.44,0 -0.52,-0.44 -0.12,-0.639999 -0.24,-1.52 -0.08,-0.88 -0.08,-1.52 l -0.36,-2.12 V 3.0428125 q 0,-0.48 0.48,-0.48 h 3.76 q 0.48,0 0.48,0.48 V 25.122812 q 0,0.64 0.04,1.44 0.04,0.760001 0.08,1.48 0.08,0.72 0.12,1.24 0.12,0.6 -0.44,0.6 z"
           id="path28" /></g><g
         id="g44"
         transform="matrix(0.91351936,0,0,-0.91351936,533.33686,1126.5461)"
         style="fill:#256c67;fill-opacity:1"><path
           class="fa-primary"
           d="m 144,288 h 156.1 c 22.5,19.8 51.7,32 83.9,32 32.2,0 61.25,-12.25 83.88,-32 H 528 C 589.9,288 640,237.9 640,176 640,114.1 589.87,64 528,64 510,64 493.25,68.625 478.25,76.12 453.1,30.1 406.8,0 352,0 311,0 274.25,17.25 248,44.75 221.8,17.25 185,0 144,0 64.5,0 0,64.5 0,144 0,223.5 64.5,288 144,288 Z"
           id="path33"
           style="fill:#256c67;fill-opacity:1" /><path
           class="fa-secondary"
           d="M 136,464 H 23.1 C 10.8,464 0,474.8 0,487.1 0,499.4 10.8,512 23.1,512 H 136 c 13.2,0 24,-10.8 24,-24 0,-13.2 -10.8,-24 -24,-24 z M 616,368 H 88 c -13.2,0 -24,10.8 -24,23.1 0,12.3 10.8,24.9 23.1,24.9 h 528 c 13.2,0 24,-10.8 24,-23.1 0,-12.3 -9.9,-24.9 -23.1,-24.9 z m -64,96 H 231.1 c -12.3,0 -23.1,10.8 -23.1,23.1 0,12.3 10.8,24.9 23.1,24.9 H 552 c 13.2,0 24,-10.8 24,-23.1 0,-12.3 -10.8,-24.9 -24,-24.9 z"
           id="path35"
           style="fill:#256c67;fill-opacity:1" /></g></g></g></svg>
